<?xml version="1.0" encoding="UTF-8"?>
<svg version="1.1" xmlns="http://www.w3.org/2000/svg" width="2260" height="2083">
<path d="M0 0 C0 558.36 0 1116.72 0 1692 C-259.05 1692 -518.1 1692 -785 1692 C-784 1690 -784 1690 -781.68457031 1689.04541016 C-780.14687988 1688.54726807 -780.14687988 1688.54726807 -778.578125 1688.0390625 C-777.42280273 1687.65669434 -776.26748047 1687.27432617 -775.07714844 1686.88037109 C-774.4551355 1686.67692078 -773.83312256 1686.47347046 -773.19226074 1686.26385498 C-701.76948827 1662.7712348 -636.207306 1623.15998636 -578 1576 C-577.14019531 1575.30390625 -576.28039063 1574.6078125 -575.39453125 1573.890625 C-565.19624533 1565.59072131 -555.15967879 1557.15035981 -545.47265625 1548.2578125 C-543.38132061 1546.34818849 -541.26741136 1544.47668748 -539.125 1542.625 C-526.22282826 1531.35720603 -514.13868965 1519.29488045 -502.04577637 1507.17272949 C-500.14289331 1505.26723056 -498.23629473 1503.3654705 -496.32972145 1501.46366501 C-494.02205663 1499.16051158 -491.71823561 1496.85352087 -489.4140625 1494.546875 C-488.57227448 1493.70711121 -487.73048645 1492.86734741 -486.8631897 1492.00213623 C-482.59095428 1487.71303325 -478.458907 1483.36109768 -474.52072144 1478.76226807 C-471.9324937 1475.76293435 -469.20935983 1472.88954799 -466.5 1470 C-461.90798774 1465.07483793 -457.37901864 1460.11653757 -453 1455 C-452.1003965 1453.95430999 -451.20064267 1452.90874931 -450.30078125 1451.86328125 C-447.70716343 1448.84697474 -445.12087534 1445.82448107 -442.53759766 1442.79931641 C-441.54620614 1441.6391774 -440.55377096 1440.47992905 -439.56005859 1439.32177734 C-433.99332979 1432.83344349 -428.57889548 1426.25843507 -423.33349609 1419.50732422 C-419.66639573 1414.80316838 -415.87752207 1410.20958258 -412.0625 1405.625 C-407.00246178 1399.53220276 -402.17012452 1393.31635393 -397.46679688 1386.9453125 C-393.96422326 1382.22263708 -390.30654594 1377.65776628 -386.5625 1373.125 C-380.25221152 1365.45095986 -374.41185385 1357.49019592 -368.68115234 1349.37695312 C-366.94854145 1346.92724362 -365.20315571 1344.48696589 -363.45703125 1342.046875 C-356.27349016 1331.9564556 -349.54139381 1321.69510695 -343.21875 1311.04492188 C-342.0965864 1309.16206084 -340.95891883 1307.29003562 -339.8125 1305.421875 C-316.088494 1266.64739015 -296.50089056 1225.72099866 -281 1183 C-280.75785767 1182.33284973 -280.51571533 1181.66569946 -280.26623535 1180.97833252 C-266.07984729 1141.77850685 -255.23560955 1101.85476469 -247 1061 C-246.78147369 1059.92413635 -246.78147369 1059.92413635 -246.55853271 1058.82653809 C-238.55048823 1019.31742032 -234.03693311 979.17060663 -231 939 C-230.90912109 937.82410309 -230.90912109 937.82410309 -230.81640625 936.62445068 C-227.08789593 888.03082747 -226.753154 838.91314366 -234.56323242 790.75170898 C-235.30213858 786.09647629 -235.96678763 781.43063353 -236.640625 776.765625 C-249.69943305 687.36264372 -271.27707894 598.80562312 -354 423 C-354.54930176 422.09749512 -355.09860352 421.19499023 -355.66455078 420.26513672 C-365.0086637 404.97077703 -375.47199813 390.55920099 -386.29296875 376.28515625 C-387.58078867 374.5611868 -388.80635648 372.79046529 -390 371 C-393.71153359 372.36418535 -396.86749079 374.05525325 -400.18359375 376.203125 C-401.18221436 376.84652832 -402.18083496 377.48993164 -403.2097168 378.15283203 C-404.27488525 378.84489746 -405.34005371 379.53696289 -406.4375 380.25 C-407.55933721 380.97428291 -408.68149363 381.6980716 -409.80395508 382.42138672 C-412.09747333 383.89956687 -414.38989335 385.37942745 -416.68164062 386.86035156 C-421.50364206 389.96953495 -426.3443282 393.04893737 -431.1875 396.125 C-432.99352282 397.27338522 -434.79951245 398.42182266 -436.60546875 399.5703125 C-437.49411621 400.13524414 -438.38276367 400.70017578 -439.29833984 401.28222656 C-443.86646057 404.18673564 -448.43315077 407.09349229 -453 410 C-454.83332663 411.1666772 -456.66665996 412.33334387 -458.5 413.5 C-459.86125 414.36625 -459.86125 414.36625 -461.25 415.25 C-689.49999999 560.49999999 -689.49999999 560.49999999 -692.24926758 562.24951172 C-694.08506912 563.41776388 -695.9208438 564.58605824 -697.7565918 565.75439453 C-702.30194376 568.64714755 -706.84773967 571.5391977 -711.39453125 574.4296875 C-721.10608469 580.60466368 -730.8086463 586.7933621 -740.5 593 C-751.08706986 599.78028179 -761.68864146 606.53742103 -772.29833984 613.28222656 C-776.86646057 616.18673564 -781.43315077 619.09349229 -786 622 C-787.83332663 623.1666772 -789.66665996 624.33334387 -791.5 625.5 C-792.86125 626.36625 -792.86125 626.36625 -794.25 627.25 C-885 685 -975.75 742.75 -1267.24926758 928.24951172 C-1269.08506912 929.41776388 -1270.9208438 930.58605824 -1272.7565918 931.75439453 C-1277.30194376 934.64714755 -1281.84773967 937.5391977 -1286.39453125 940.4296875 C-1296.10608491 946.60466382 -1305.80860801 952.79342163 -1315.5 959 C-1323.74454652 964.27940822 -1331.99280418 969.55289301 -1340.25 974.8125 C-1341.16072266 975.39322266 -1342.07144531 975.97394531 -1343.00976562 976.57226562 C-1346.97809354 979.09811388 -1350.94595047 981.61280141 -1355 984 C-1353.91235081 987.26294757 -1353.51148783 987.62169918 -1350.81640625 989.4609375 C-1349.80960815 990.15823975 -1349.80960815 990.15823975 -1348.7824707 990.86962891 C-1348.04988037 991.36640137 -1347.31729004 991.86317383 -1346.5625 992.375 C-1345.004499 993.45209968 -1343.44723107 994.53026036 -1341.890625 995.609375 C-1341.08302734 996.16689453 -1340.27542969 996.72441406 -1339.44335938 997.29882812 C-1335.52974454 1000.02365508 -1331.67145369 1002.82355004 -1327.8125 1005.625 C-1322.5536972 1009.43377558 -1317.28841956 1013.23244318 -1312 1017 C-1306.71157367 1020.76756165 -1301.44692136 1024.56707142 -1296.1875 1028.375 C-1290.31868597 1032.62242981 -1284.42575593 1036.83239752 -1278.5 1041 C-1270.37807304 1046.71358269 -1262.32506235 1052.51947615 -1254.28369141 1058.34570312 C-1250.44120888 1061.12918202 -1246.5959003 1063.90874599 -1242.75 1066.6875 C-1241.6209021 1067.50335571 -1241.6209021 1067.50335571 -1240.46899414 1068.33569336 C-1235.43156592 1071.97301042 -1230.38092946 1075.59122906 -1225.32055664 1079.1965332 C-1220.59364258 1082.5674928 -1215.89009337 1085.97022626 -1211.1875 1089.375 C-1205.31868597 1093.62242981 -1199.42575593 1097.83239752 -1193.5 1102 C-1183.84482256 1108.79218798 -1174.28794223 1115.71820101 -1164.72949219 1122.64550781 C-1153.87470454 1130.50973838 -1142.96812189 1138.29454728 -1132 1146 C-1123.91793295 1141.8629592 -1116.37383428 1137.08561863 -1108.78515625 1132.12109375 C-1103.59290073 1128.72436209 -1098.36172191 1125.39014311 -1093.125 1122.0625 C-1092.19349121 1121.47033691 -1091.26198242 1120.87817383 -1090.30224609 1120.26806641 C-1080.44334547 1114.00510698 -1070.5659897 1107.77145995 -1060.68652344 1101.54101562 C-1051.44580472 1095.71255388 -1042.2149344 1089.86915989 -1033 1084 C-1023.78951614 1078.13367474 -1014.56300997 1072.29326982 -1005.32666016 1066.46777344 C-1001.38339757 1063.98016644 -997.44177316 1061.48996615 -993.5 1059 C-988.78594137 1056.02219129 -984.07159764 1053.04484165 -979.35546875 1050.0703125 C-970.89235585 1044.73116745 -962.44001252 1039.37559801 -954 1034 C-943.2470994 1027.15128137 -932.46994669 1020.34153666 -921.68652344 1013.54101562 C-912.44580472 1007.71255388 -903.2149344 1001.86915989 -894 996 C-883.2470994 989.15128137 -872.46994669 982.34153666 -861.68652344 975.54101562 C-852.44580472 969.71255388 -843.2149344 963.86915989 -834 958 C-823.2470994 951.15128137 -812.46994669 944.34153666 -801.68652344 937.54101562 C-792.44580472 931.71255388 -783.2149344 925.86915989 -774 920 C-763.2470994 913.15128137 -752.46994669 906.34153666 -741.68652344 899.54101562 C-732.44580472 893.71255388 -723.2149344 887.86915989 -714 882 C-703.2470994 875.15128137 -692.46994669 868.34153666 -681.68652344 861.54101562 C-672.44580472 855.71255388 -663.2149344 849.86915989 -654 844 C-644.78951614 838.13367474 -635.56300997 832.29326982 -626.32666016 826.46777344 C-622.38339757 823.98016644 -618.44177316 821.48996615 -614.5 819 C-609.78594137 816.02219129 -605.07159764 813.04484165 -600.35546875 810.0703125 C-592.8274183 805.32107262 -585.30542765 800.56266892 -577.79760742 795.78149414 C-575.94272846 794.60032198 -574.08742694 793.41981311 -572.23168945 792.23999023 C-567.65554467 789.3304786 -563.08463314 786.41336836 -558.5234375 783.48046875 C-556.80734436 782.38273012 -555.09120081 781.28507029 -553.375 780.1875 C-552.58738281 779.67767578 -551.79976562 779.16785156 -550.98828125 778.64257812 C-550.25738281 778.17658203 -549.52648438 777.71058594 -548.7734375 777.23046875 C-548.13841309 776.82207764 -547.50338867 776.41368652 -546.84912109 775.99291992 C-544.91242674 774.95297591 -543.14663484 774.43877382 -541 774 C-527.24226181 838.00232349 -519.51128689 904.61008392 -527 970 C-527.07541016 970.66916443 -527.15082031 971.33832886 -527.22851562 972.027771 C-536.4231228 1053.12650492 -562.99003981 1130.54866367 -636 1240 C-636.49048828 1240.64211426 -636.98097656 1241.28422852 -637.48632812 1241.94580078 C-643.24955785 1249.45564196 -649.24849125 1256.7417157 -655.40234375 1263.93359375 C-657.72652742 1266.65770986 -659.95923584 1269.44669993 -662.1875 1272.25 C-668.0422035 1279.43815911 -674.49904639 1286.06686274 -680.89160156 1292.77392578 C-682.94113798 1294.93785273 -684.96998835 1297.11912627 -686.9921875 1299.30859375 C-695.63453547 1308.64511051 -704.61280904 1317.48499869 -713.96679688 1326.10644531 C-715.90302409 1327.90968478 -717.80748437 1329.74018215 -719.703125 1331.5859375 C-728.61286131 1340.20787451 -738.16296149 1347.6761291 -748.19213867 1354.9543457 C-750.26789524 1356.46662849 -752.3346951 1357.98820866 -754.39575195 1359.52026367 C-763.48592171 1366.26305331 -772.75793453 1372.67959882 -782.1875 1378.9375 C-782.90511505 1379.41489624 -783.6227301 1379.89229248 -784.36209106 1380.38415527 C-795.71376847 1387.92832729 -807.15810767 1395.24312413 -819 1402 C-820.05622559 1402.60763184 -820.05622559 1402.60763184 -821.13378906 1403.22753906 C-826.37859876 1406.23456329 -831.67631179 1409.13533435 -837 1412 C-837.95664551 1412.51788086 -838.91329102 1413.03576172 -839.89892578 1413.56933594 C-912.88742854 1452.89291047 -993.55353223 1474.76095845 -1331.03710938 1464.95654297 C-1416.50628654 1439.1457583 -1495.1343576 1396.61650943 -1563.93554688 1339.68334961 C-1565.37389822 1338.51052173 -1566.82990177 1337.35915295 -1568.29882812 1336.22485352 C-1576.97414067 1329.40912555 -1584.63913347 1321.62921675 -1592.39892578 1313.80688477 C-1594.75367514 1311.43379624 -1597.11641141 1309.06889069 -1599.48046875 1306.70507812 C-1601.00307761 1305.17755511 -1602.52522896 1303.64957588 -1604.046875 1302.12109375 C-1604.74182068 1301.42503525 -1605.43676636 1300.72897675 -1606.152771 1300.01182556 C-1610.62581192 1295.49585152 -1614.8667938 1290.82807985 -1619 1286 C-1619.68835937 1285.20309502 -1619.68835937 1285.20309502 -1620.390625 1284.39009094 C-1627.51521464 1276.12337697 -1634.37641378 1267.67256274 -1641 1259 C-1641.52964355 1258.30696777 -1642.05928711 1257.61393555 -1642.60498047 1256.89990234 C-1675.32622113 1213.84161573 -1701.64647213 1165.46771296 -1721 1115 C-1721.44794922 1113.83742676 -1721.89589844 1112.67485352 -1722.35742188 1111.47705078 C-1741.23432647 1062.14942314 -1754.60857485 1011.74544779 -1759 959 C-1759.0942627 957.94264648 -1759.18852539 956.88529297 -1759.28564453 955.79589844 C-1760.28683901 943.13320613 -1760.24367404 930.44501703 -1760.25 917.75 C-1760.25067474 916.53068787 -1760.25134949 915.31137573 -1760.25204468 914.05511475 C-1760.23436653 893.87526012 -1759.51537963 874.02400636 -1757 854 C-1756.87625 853.00009033 -1756.87625 853.00009033 -1756.75 851.97998047 C-1748.50831064 785.80872458 -1727.85287125 722.49035381 -1698 663 C-1697.47905762 661.96085449 -1696.95811523 660.92170898 -1696.42138672 659.85107422 C-1678.99744007 625.3112224 -1657.95734012 592.38208722 -1634 562 C-1633.12013759 560.86402119 -1632.24126134 559.727278 -1631.36328125 558.58984375 C-1622.76928398 547.49395275 -1613.68140435 536.85184111 -1604.23046875 526.4765625 C-1600.00513404 521.785035 -1595.85491158 517.03748298 -1591.8359375 512.16796875 C-1581.7371087 500.32160866 -1569.66058042 492.33623342 -1556.60137939 484.16435242 C-1548.20495021 478.90191505 -1539.94356927 473.43515714 -1531.67541504 467.97424316 C-1528.85112076 466.10923144 -1526.02480732 464.24731006 -1523.19824219 462.38574219 C-1509.34135788 453.25121127 -1495.57025606 443.99398786 -1481.82659912 434.69024658 C-1467.38034899 424.91359119 -1452.84727289 415.27687548 -1438.2649231 405.70462036 C-1422.32334226 395.23701489 -1406.49083968 384.61473723 -1390.72070312 373.890625 C-1381.95261484 367.93903427 -1373.11728191 362.13997172 -1364.13339233 356.51937866 C-1355.86174861 351.32466412 -1347.78486727 345.85330928 -1339.70874023 340.36132812 C-1323.89148817 329.60927414 -1307.98856295 318.99533208 -1292 308.5 C-1277.43060856 298.93396718 -1262.9331952 289.27029451 -1248.5 279.5 C-1234.0804349 269.7416015 -1219.60753582 260.07046373 -1205.0625 250.5 C-1204.15355988 249.901875 -1203.24461975 249.30375 -1202.30813599 248.6875 C-1194.95470564 243.84999338 -1187.59725251 239.01861784 -1180.23962402 234.1875 C-1173.8036913 229.9612062 -1167.36937184 225.73247169 -1160.9375 221.5 C-1160.02847931 220.901875 -1159.11945862 220.30375 -1158.18289185 219.6875 C-1143.65840296 210.12483504 -1129.22296744 200.43565408 -1114.82247925 190.6875 C-1100.37760759 180.91175258 -1085.84589315 171.27596978 -1071.2649231 161.70462036 C-1055.32334226 151.23701489 -1039.49083968 140.61473723 -1023.72070312 129.890625 C-1014.95261484 123.93903427 -1006.11728191 118.13997172 -997.13339233 112.51937866 C-988.86174861 107.32466412 -980.78486727 101.85330928 -972.70874023 96.36132812 C-956.89149638 85.60927971 -940.98883122 74.99491418 -925 64.5 C-907.82610793 53.22620352 -890.75920805 41.80188779 -873.75390625 30.27539062 C-872.889328 29.68995483 -872.02474976 29.10451904 -871.13397217 28.50134277 C-869.53478342 27.41814891 -867.93643983 26.33370563 -866.33917236 25.24768066 C-864.91869944 24.28538764 -863.4946458 23.32835235 -862.06652832 22.37744141 C-860.64438251 21.42951221 -859.23164638 20.4673623 -857.82702637 19.49365234 C-857.12839478 19.02523926 -856.42976318 18.55682617 -855.70996094 18.07421875 C-855.09183533 17.65100342 -854.47370972 17.22778809 -853.83685303 16.79174805 C-851.42280051 15.75120679 -850.45671378 16.13659645 -848 17 C-846.32088852 18.30438137 -846.32088852 18.30438137 -844.63372803 19.99205017 C-843.98875366 20.63001022 -843.3437793 21.26797028 -842.67926025 21.92526245 C-841.63484772 22.98114059 -841.63484772 22.98114059 -840.56933594 24.05834961 C-839.82748047 24.79655441 -839.085625 25.53475922 -838.32128906 26.29533386 C-835.86818649 28.74032219 -833.42611846 31.19601523 -830.984375 33.65234375 C-829.28666414 35.35057303 -827.58843543 37.04828476 -825.88970947 38.74549866 C-822.3309064 42.30439149 -818.77733435 45.86840216 -815.22753906 49.4362793 C-810.66703129 54.01949998 -806.0955066 58.59153867 -801.52025986 63.16004086 C-798.01300347 66.66396355 -794.51073895 70.17284014 -791.01007843 73.68335152 C-789.32562431 75.37166633 -787.63980572 77.05862087 -785.95262909 78.74421501 C-783.60113932 81.09533584 -781.25622673 83.45281828 -778.91308594 85.81225586 C-778.20871399 86.51415039 -777.50434204 87.21604492 -776.77862549 87.93920898 C-776.14493042 88.57998886 -775.51123535 89.22076874 -774.8583374 89.88096619 C-774.30308254 90.43827392 -773.74782768 90.99558165 -773.17574692 91.56977749 C-772 93 -772 93 -772 95 C-773.48681641 96.10644531 -773.48681641 96.10644531 -775.6015625 97.328125 C-776.39054932 97.79089844 -777.17953613 98.25367187 -777.99243164 98.73046875 C-778.8611792 99.23191406 -779.72992676 99.73335938 -780.625 100.25 C-788.19328341 104.7010512 -795.6684376 109.26494106 -803.0625 114 C-803.98514648 114.59014893 -804.90779297 115.18029785 -805.85839844 115.78833008 C-807.69546744 116.96402195 -809.53222416 118.14020194 -811.36865234 119.31689453 C-825.48352546 128.34527969 -839.70623854 137.20434389 -853.91943359 146.07666016 C-858.94746487 149.21589223 -863.97365341 152.35807151 -869 155.5 C-870.99999085 156.75001464 -872.99999086 158.00001462 -875 159.25 C-875.99 159.86875 -876.98 160.4875 -878 161.125 C-935 196.75 -935 196.75 -938.0012207 198.62573242 C-939.99718828 199.87323247 -941.99311939 201.12079088 -943.98901367 202.3684082 C-949.05040916 205.53214182 -954.11247394 208.69479561 -959.17578125 211.85546875 C-968.29664293 217.55021995 -977.41354171 223.25047521 -986.5 229 C-996.61423388 235.39985753 -1006.76629843 241.73875893 -1016.91943359 248.07666016 C-1021.94746487 251.21589223 -1026.97365341 254.35807151 -1032 257.5 C-1033.99999085 258.75001464 -1035.99999086 260.00001462 -1038 261.25 C-1038.99 261.86875 -1039.98 262.4875 -1041 263.125 C-1097.99999999 298.74999999 -1097.99999999 298.74999999 -1101.0012207 300.62573242 C-1102.99718828 301.87323247 -1104.99311939 303.12079088 -1106.98901367 304.3684082 C-1112.05040916 307.53214182 -1117.11247394 310.69479561 -1122.17578125 313.85546875 C-1131.29664293 319.55021995 -1140.41354171 325.25047521 -1149.5 331 C-1159.61423388 337.39985753 -1169.76629843 343.73875893 -1179.91943359 350.07666016 C-1184.94746487 353.21589223 -1189.97365341 356.35807151 -1195 359.5 C-1196.99999085 360.75001464 -1198.99999086 362.00001462 -1201 363.25 C-1201.99 363.86875 -1202.98 364.4875 -1204 365.125 C-1237 385.75 -1237 385.75 -1240.00170898 387.62597656 C-1241.99612217 388.8725457 -1243.99042606 390.11928972 -1245.98461914 391.36621094 C-1251.06920277 394.54516624 -1256.15581217 397.72080028 -1261.24609375 400.890625 C-1272.9019336 408.1536017 -1284.50368143 415.48678093 -1296 423 C-1281.53805005 434.05027062 -1281.53805005 434.05027062 -1267 445 C-1260.8886905 449.56783617 -1254.81425055 454.18239268 -1248.75 458.8125 C-1241.77484202 464.13781856 -1234.77696193 469.43073038 -1227.75 474.6875 C-1219.55408534 480.82030236 -1211.4113366 487.01899225 -1203.28808594 493.24755859 C-1192.67143481 501.37883493 -1182.04139947 509.49246326 -1171.328125 517.49609375 C-1163.17750602 523.60905798 -1155.09892205 529.81882439 -1147 536 C-1141.23903261 533.22980509 -1135.87033434 530.14714544 -1130.5 526.6875 C-1128.82332426 525.61785041 -1127.14621992 524.54887244 -1125.46875 523.48046875 C-1124.58445312 522.91634277 -1123.70015625 522.3522168 -1122.7890625 521.77099609 C-1117.87725169 518.65209942 -1112.93729505 515.57833104 -1108 512.5 C-1100.82097714 508.0193425 -1093.65067097 503.52577022 -1086.5 499 C-1076.38584656 492.60001664 -1066.23370052 486.26124041 -1056.08056641 479.92333984 C-1051.05253513 476.78410777 -1046.02634659 473.64192849 -1041 470.5 C-1039.00000915 469.24998536 -1037.00000914 467.99998538 -1035 466.75 C-1034.01 466.13125 -1033.02 465.5125 -1032 464.875 C-951 414.25 -951 414.25 -947.9987793 412.37426758 C-946.00281172 411.12676753 -944.00688061 409.87920912 -942.01098633 408.6315918 C-936.94959084 405.46785818 -931.88752606 402.30520439 -926.82421875 399.14453125 C-917.70335707 393.44978005 -908.58645829 387.74952479 -899.5 382 C-889.38576612 375.60014247 -879.23370157 369.26124107 -869.08056641 362.92333984 C-864.05253513 359.78410777 -859.02634659 356.64192849 -854 353.5 C-852.00000915 352.24998536 -850.00000914 350.99998538 -848 349.75 C-847.01 349.13125 -846.02 348.5125 -845 347.875 C-764 297.25 -764 297.25 -760.9987793 295.37426758 C-759.00281172 294.12676753 -757.00688061 292.87920912 -755.01098633 291.6315918 C-749.94959084 288.46785818 -744.88752606 285.30520439 -739.82421875 282.14453125 C-730.70335707 276.44978005 -721.58645829 270.74952479 -712.5 265 C-702.38576612 258.60014247 -692.23370157 252.26124107 -682.08056641 245.92333984 C-677.05253513 242.78410777 -672.02634659 239.64192849 -667 236.5 C-665.00000915 235.24998536 -663.00000914 233.99998538 -661 232.75 C-660.01 232.13125 -659.02 231.5125 -658 230.875 C-576.99999999 180.24999999 -576.99999999 180.24999999 -573.9987793 178.37426758 C-572.00281172 177.12676753 -570.00688061 175.87920912 -568.01098633 174.6315918 C-562.94959084 171.46785818 -557.88752606 168.30520439 -552.82421875 165.14453125 C-543.70335707 159.44978005 -534.58645829 153.74952479 -525.5 148 C-515.38576612 141.60014247 -505.23370157 135.26124107 -495.08056641 128.92333984 C-490.05253513 125.78410777 -485.02634659 122.64192849 -480 119.5 C-478.00000915 118.24998536 -476.00000914 116.99998538 -474 115.75 C-473.01 115.13125 -472.02 114.5125 -471 113.875 C-389.99999998 63.24999999 -389.99999998 63.24999999 -386.9987793 61.37426758 C-385.00281172 60.12676753 -383.00688061 58.87920912 -381.01098633 57.6315918 C-375.94959084 54.46785818 -370.88752606 51.30520439 -365.82421875 48.14453125 C-355.94445938 41.97595053 -346.07349417 35.79458933 -336.23242188 29.56445312 C-328.77480657 24.84740094 -321.28885928 20.17591345 -313.796875 15.51367188 C-312.38728516 14.63485352 -312.38728516 14.63485352 -310.94921875 13.73828125 C-310.03899806 13.18104339 -309.12877737 12.62380552 -308.19097424 12.04968166 C-304.97008792 10.03683682 -304.97008792 10.03683682 -301.95408344 7.70533085 C-292.68624269 0.82838531 -285.33882586 -0.29057926 -274.00268555 -0.11352539 C-272.33847456 -0.12087403 -270.67427718 -0.13217532 -269.01011658 -0.14706421 C-264.49926088 -0.17626966 -259.99023192 -0.15034532 -255.47948813 -0.11447453 C-250.63321665 -0.08580321 -245.78715917 -0.10920963 -240.94087219 -0.12632751 C-231.65615418 -0.15139004 -222.37212074 -0.13075579 -213.08746606 -0.09355396 C-201.94552416 -0.05108312 -190.80414121 -0.06828785 -179.66210938 -0.08398438 C-119.77493313 -0.11779983 -59.8872553 0 0 0 Z " fill="#FFFFFF" transform="translate(2260,0)"/>
<path d="M0 0 C286.58527907 0 286.58527907 0 337.34906006 34.39416504 C352.95039165 44.95997851 368.62659356 55.40480455 384.375 65.75 C397.82552885 74.58709589 411.23713517 83.4751012 424.5625 92.5 C425.67837997 93.25567261 425.67837997 93.25567261 426.81680298 94.02661133 C430.6236766 96.60543632 434.42931728 99.18607469 438.234375 101.76757812 C446.83772137 107.60396981 455.44730977 113.43110578 464.0625 119.25 C465.4049881 120.15682526 465.4049881 120.15682526 466.77459717 121.08197021 C481.42362695 130.97086273 496.15828753 140.72455769 510.93127441 150.42703247 C526.26614854 160.5008362 541.50814423 170.70553076 556.69799805 180.99658203 C557.47285049 181.52145203 558.24770294 182.04632202 559.04603577 182.58709717 C560.54764888 183.60500473 562.0485961 184.62389545 563.54881287 185.64385986 C567.1666584 188.09995639 570.79800459 190.53030728 574.46240234 192.91650391 C575.16644699 193.37716751 575.87049164 193.83783112 576.59587097 194.31245422 C577.9244221 195.17960975 579.25670719 196.04107996 580.59321594 196.8959198 C582.09699687 197.87927268 583.5543795 198.93298485 585 200 C585 200.66 585 201.32 585 202 C583.13644294 203.45952536 581.26780738 204.79691739 579.3125 206.125 C572.83568889 210.63484288 566.5227168 215.33573745 560.25 220.125 C559.38802002 220.78129395 558.52604004 221.43758789 557.63793945 222.11376953 C551.69070272 226.65942096 545.82684998 231.30127848 540 236 C539.31502441 236.55139648 538.63004883 237.10279297 537.92431641 237.67089844 C529.39903143 244.54509205 520.94880788 251.49848822 512.62402344 258.61425781 C510.93285779 260.05729092 509.23625381 261.49374817 507.5390625 262.9296875 C500.15960237 269.19080025 492.97397629 275.61849759 485.90991211 282.23364258 C484.48123071 283.55494002 483.03979051 284.86246536 481.59204102 286.1628418 C472.66432308 294.22016725 464.16259256 302.68515767 455.67114258 311.19848633 C453.17838005 313.69663968 450.68027525 316.18936198 448.18164062 318.68164062 C446.57259572 320.29134591 444.96386082 321.90136115 443.35546875 323.51171875 C442.25213448 324.61201668 442.25213448 324.61201668 441.12651062 325.73454285 C437.09635624 329.78280638 433.23159878 333.92069133 429.50834656 338.25354004 C427.27858491 340.83530046 424.9501426 343.31628835 422.625 345.8125 C418.3312462 350.46038542 414.2646816 355.24416348 410.296875 360.17578125 C408.27459779 362.6623568 406.20824312 365.10304082 404.11767578 367.53222656 C392.86590397 380.63586085 382.68587548 394.59119564 372.67236328 408.65234375 C371.54314046 410.2375418 370.41123613 411.82083259 369.27685547 413.40234375 C360.29032718 425.94285211 351.90045567 438.74835698 344 452 C343.41105957 452.98709961 342.82211914 453.97419922 342.21533203 454.99121094 C324.37132395 485.06175686 309.01486203 516.06291931 295.83129883 548.45141602 C292.13430047 557.48203301 288.14019388 566.35292054 284.03515625 575.20465088 C248.72600103 651.36708163 224.50554412 733.22119722 209 892 C208.97663574 892.94713867 208.95327148 893.89427734 208.92919922 894.87011719 C207.13604902 978.68105319 221.9321723 1063.29999885 251 1152 C251.24256531 1152.72662842 251.48513062 1153.45325684 251.73504639 1154.2019043 C266.32926641 1197.80405531 284.78947986 1239.73568349 305 1281 C305.45826172 1281.9384375 305.91652344 1282.876875 306.38867188 1283.84375 C313.21047224 1297.77764011 320.45132858 1311.44718444 328 1325 C328.53415527 1325.96115723 329.06831055 1326.92231445 329.61865234 1327.91259766 C339.65973498 1345.94477072 349.76606897 1363.52216533 362.38476562 1379.88134766 C365.33605339 1383.75245939 368.18993327 1387.69535373 371.0625 1391.625 C376.88235409 1399.54849215 382.8414422 1407.33723931 389 1415 C389.5141748 1415.6403418 390.02834961 1416.28068359 390.55810547 1416.94042969 C396.65267537 1424.51607711 402.81418544 1432.0289444 409.12597656 1439.42480469 C411.89601926 1442.6743166 414.58761276 1445.97458167 417.25 1449.3125 C421.74372285 1454.84448372 426.59859277 1460.00694839 431.50878906 1465.16723633 C434.63690607 1468.45739543 437.70440979 1471.77739685 440.6796875 1475.20703125 C443.18295671 1478.09214913 445.75671955 1480.83860852 448.5 1483.5 C451.23631679 1486.15463569 453.79622103 1488.89302622 456.28515625 1491.77734375 C459.99691153 1496.05308654 463.92344915 1500.07167413 467.9375 1504.0625 C468.60201172 1504.73087891 469.26652344 1505.39925781 469.95117188 1506.08789062 C473.91000494 1510.03904409 477.98687021 1513.78553931 482.22094727 1517.43920898 C484.41638321 1519.36529956 486.46679839 1521.40423834 488.5 1523.5 C491.85256779 1526.89268399 495.29475682 1530.09100684 498.9140625 1533.1953125 C501.25025501 1535.21651276 503.52964851 1537.29378839 505.8125 1539.375 C510.13260791 1543.27363397 514.58071381 1546.97503858 519.10546875 1550.6328125 C521.61372832 1552.6841017 524.08138433 1554.77467328 526.5378418 1556.88745117 C534.12546304 1563.40129737 542.02755557 1569.45779612 550.00439453 1575.48486328 C551.79194105 1576.84203403 553.56901308 1578.2109756 555.33984375 1579.58984375 C587.82545027 1604.86553003 622.9571304 1627.35525942 659.34326172 1646.59375 C662.0176832 1648.00935997 664.68274786 1649.44157662 667.34765625 1650.875 C694.77316397 1665.52135172 723.02721021 1677.78481089 752 1689 C752 1689.33 752 1689.66 752 1690 C503.84 1690 255.68 1690 0 1690 C0 1132.3 0 574.6 0 0 Z " fill="#FFFFFF" transform="translate(0,1)"/>
<path d="M0 0 C25.41 0 50.82 0 77 0 C82.73501263 19.49904294 82.73501263 19.49904294 84.578125 26.87109375 C84.79082535 27.70936707 85.0035257 28.54764038 85.22267151 29.41131592 C85.6711426 31.1795052 86.11828529 32.94803192 86.56411743 34.71688843 C87.75304398 39.43286675 88.95265682 44.14612439 90.15234375 48.859375 C90.39268845 49.80423264 90.63303314 50.74909027 90.88066101 51.72257996 C93.13327237 60.55978432 95.4621788 69.3758641 97.8125 78.1875 C100.64555528 88.81481363 103.39896557 99.45779434 106.04199219 110.13427734 C107.62765673 116.53620223 109.27915792 122.91413432 111 129.28125 C111.98597335 132.94783839 112.94734359 136.62014585 113.9050293 140.29418945 C115.97704106 152.49265883 115.97704106 152.49265883 121 163 C122.74414067 156.46179229 124.48529196 149.92279322 126.22460938 143.38330078 C126.81348047 141.17056336 127.40297323 138.95799125 127.99316406 136.74560547 C131.68848409 122.89130838 135.28298737 109.01767929 138.7277832 95.09887695 C140.08940985 89.6089419 141.53448933 84.14463046 143.0078125 78.68359375 C144.16787458 74.37674909 145.30411065 70.06392516 146.4375 65.75 C146.65132324 64.93732666 146.86514648 64.12465332 147.08544922 63.28735352 C148.08652279 59.48154145 149.08537301 55.675179 150.078125 51.8671875 C154.60754269 34.54694942 159.32840714 17.28489359 164 0 C189.74 0 215.48 0 242 0 C242 82.5 242 165 242 250 C225.83 250 209.66 250 193 250 C192.67 189.94 192.34 129.88 192 68 C188.7 81.2 185.4 94.4 182 108 C180.68 112.95 179.36 117.9 178 123 C176.81254814 127.67354155 175.63344472 132.3481815 174.46875 137.02734375 C174.15095581 138.29993546 173.83316162 139.57252716 173.5057373 140.88368225 C172.67112733 144.22588346 171.83792752 147.56843452 171.00506592 150.91107178 C170.16698883 154.27360924 169.32758266 157.63581484 168.48828125 160.99804688 C165.09289725 174.60156551 165.09289725 174.60156551 161.7043457 188.20678711 C161.42844604 189.31426048 161.42844604 189.31426048 161.14697266 190.44410706 C160.69362051 192.26389022 160.24093481 194.08383939 159.78833008 195.90380859 C158.95547317 199.17488055 158.0780507 202.43169891 157.1875 205.6875 C155.79810593 210.82053919 154.52176619 215.96956701 153.296875 221.14453125 C153.06880913 222.10561043 153.06880913 222.10561043 152.83613586 223.08610535 C152.06588481 226.33387743 151.30253526 229.58286806 150.54956055 232.8347168 C150.2637915 234.04426025 149.97802246 235.25380371 149.68359375 236.5 C149.43150146 237.5828125 149.17940918 238.665625 148.91967773 239.78125 C148 243 148 243 145 250 C128.5 250 112 250 95 250 C86.97460509 219.26444502 79.32372285 188.4419047 71.80566406 157.57861328 C71.47079735 156.20465897 71.47079735 156.20465897 71.12916565 154.802948 C70.7191546 153.12021781 70.30954577 151.43738952 69.90049744 149.75442505 C67.96917049 141.82700818 65.97906358 133.91625433 64 126 C59.05 106.2 54.1 86.4 49 66 C48.67 126.72 48.34 187.44 48 250 C32.16 250 16.32 250 0 250 C0 167.5 0 85 0 0 Z " fill="#FFFFFF" transform="translate(795,1805)"/>
<path d="M0 0 C60.72 0 121.44 0 184 0 C184 41 184 41 173 54 C171.12767332 56.3187866 169.2686709 58.64857669 167.4375 61 C166.9947876 61.56541504 166.5520752 62.13083008 166.09594727 62.71337891 C163.75372216 65.71205817 161.44251744 68.73188528 159.15625 71.7734375 C158.69935791 72.37800781 158.24246582 72.98257812 157.77172852 73.60546875 C156.89925402 74.76259504 156.03230246 75.92391177 155.17163086 77.08984375 C154.16106066 78.42971502 153.08604893 79.7205451 152 81 C151.34 81 150.68 81 150 81 C149.690625 81.61875 149.38125 82.2375 149.0625 82.875 C148.375 84.25 147.6875 85.625 147 87 C146.34 87 145.68 87 145 87 C144.5978125 88.2065625 144.5978125 88.2065625 144.1875 89.4375 C143.795625 90.283125 143.40375 91.12875 143 92 C142.01 92.33 141.02 92.66 140 93 C139.30819672 94.65639079 138.64487451 96.32478088 138 98 C136.3359375 100.10546875 136.3359375 100.10546875 134.375 102.1875 C130.01009752 106.95206142 125.99067674 111.92031816 122 117 C121.05220024 118.20191511 120.10427613 119.40373218 119.15625 120.60546875 C114.11213101 126.92270441 114.11213101 126.92270441 109.30078125 133.4140625 C108.87152344 133.93742187 108.44226562 134.46078125 108 135 C107.34 135 106.68 135 106 135 C105.75507812 135.72832031 105.51015625 136.45664063 105.2578125 137.20703125 C103.85525932 140.32139623 102.22086374 142.21494327 99.875 144.6875 C96.15620765 148.70733745 92.67437495 152.81833754 89.28515625 157.1171875 C86.45335588 160.68961258 83.5697525 164.21825534 80.6875 167.75 C76.52719806 172.85353557 72.42007003 177.99223201 68.375 183.1875 C64.22466829 188.51700703 59.93266547 193.70661801 55.52685547 198.8269043 C53.527244 201.15655957 51.70646332 203.44030502 50 206 C118.805 206.495 118.805 206.495 189 207 C189 221.19 189 235.38 189 250 C121.68 250 54.36 250 -15 250 C-15 203 -15 203 -1 186 C2.00006693 182.23948693 2.00006693 182.23948693 4.9921875 178.47265625 C6.57833572 176.51928695 8.18592964 174.5961579 9.8203125 172.68359375 C10.3150708 172.10448242 10.8098291 171.52537109 11.31958008 170.92871094 C12.28728674 169.80006271 13.25828389 168.67422416 14.2331543 167.55175781 C16.84162147 164.51318864 18.98989106 161.45618732 21 158 C22.31387169 156.64748503 23.64426252 155.31054623 25 154 C25.33 153.34 25.66 152.68 26 152 C26.66 152 27.32 152 28 152 C28.22816406 151.47277344 28.45632813 150.94554687 28.69140625 150.40234375 C30.4411185 147.19018545 32.66545467 144.4133778 34.9375 141.5625 C35.42331543 140.94850342 35.90913086 140.33450684 36.40966797 139.7019043 C40.61878687 134.4130549 44.97001187 129.25203307 49.35546875 124.109375 C56.72793847 115.63693033 56.72793847 115.63693033 63.3125 106.5625 C64.98476269 104.02313814 66.82069162 102.10415981 69 100 C69.33 99.34 69.66 98.68 70 98 C70.66 98 71.32 98 72 98 C72.26167969 97.42765625 72.52335937 96.8553125 72.79296875 96.265625 C74.08949469 93.83201643 75.56851342 91.88610347 77.3125 89.75 C78.0240625 88.87472656 78.735625 87.99945312 79.46875 87.09765625 C79.86835937 86.6092627 80.26796875 86.12086914 80.6796875 85.61767578 C82.13678875 83.83240343 83.58442564 82.03970382 85.03125 80.24609375 C90.9886732 72.87096375 97.0100544 65.56082348 103.171875 58.35546875 C107.16769438 53.61457255 111.07378939 48.79870186 115 44 C77.05 43.67 39.1 43.34 0 43 C0 28.81 0 14.62 0 0 Z " fill="#FFFFFF" transform="translate(1285,1805)"/>
<path d="M0 0 C65.67 0 131.34 0 199 0 C199 14.19 199 28.38 199 43 C174.91 43 150.82 43 126 43 C126 111.31 126 179.62 126 250 C108.84 250 91.68 250 74 250 C74 181.69 74 113.38 74 43 C49.58 43 25.16 43 0 43 C0 28.81 0 14.62 0 0 Z " fill="#FFFFFF" transform="translate(1065,1805)"/>
</svg>
