<?xml version="1.0" encoding="UTF-8"?>
<svg version="1.1" xmlns="http://www.w3.org/2000/svg" width="512" height="420">
<path d="M0 0 C0 137.28 0 274.56 0 416 C-58.74 416.33 -117.48 416.66 -178 417 C-178 416.34 -178 415.68 -178 415 C-176.97261719 414.56429688 -175.94523438 414.12859375 -174.88671875 413.6796875 C-157.60703325 406.2869618 -142.29423061 397.53988477 -128.73071289 384.40356445 C-125.19162189 381 -125.19162189 381 -123 381 C-123 380.34 -123 379.68 -123 379 C-122.34 379 -121.68 379 -121 379 C-120.731875 378.360625 -120.46375 377.72125 -120.1875 377.0625 C-119 375 -119 375 -116 374 C-115.30689675 372.68021589 -114.64476912 371.34405915 -114 370 C-112.70630548 368.48604284 -111.36727693 367.01034861 -110 365.5625 C-105.0947358 360.20275445 -100.66375757 354.56587854 -96.31787109 348.75488281 C-94.96996384 346.96000371 -93.60475338 345.17920981 -92.23828125 343.3984375 C-85.6276207 334.69528499 -80.01971489 325.70591817 -75 316 C-74.52868652 315.09628662 -74.52868652 315.09628662 -74.04785156 314.17431641 C-46.76754512 261.11310136 -48.02550112 196.67484481 -64.97021484 140.80078125 C-68.90299174 128.67095965 -73.91388278 117.19208471 -80 106 C-80.31888184 105.39317383 -80.63776367 104.78634766 -80.96630859 104.16113281 C-83.67050608 98.87956444 -83.67050608 98.87956444 -87 94 C-91.51725121 94 -92.39836688 94.62270257 -96 97.125 C-97.05703125 97.85332031 -98.1140625 98.58164063 -99.203125 99.33203125 C-100.46921617 100.22069038 -101.73479817 101.11007516 -103 102 C-104.55705461 103.08757905 -106.11436199 104.17479627 -107.671875 105.26171875 C-111.11116079 107.66489329 -114.54670177 110.07332295 -117.98046875 112.484375 C-124.95184353 117.37424925 -131.97206461 122.19193421 -139 127 C-139.7513623 127.5141748 -140.50272461 128.02834961 -141.27685547 128.55810547 C-144.49640482 130.76116401 -147.71623012 132.96381908 -150.93603516 135.16650391 C-153.29080023 136.7775084 -155.64542895 138.38871194 -158 140 C-158.68562012 140.46905762 -159.37124023 140.93811523 -160.07763672 141.42138672 C-168.94742821 147.49272292 -177.76889439 153.62999531 -186.5690918 159.80175781 C-193.70032169 164.79944434 -200.86722548 169.74319777 -208.05126953 174.66455078 C-211.43221978 176.98148862 -214.8098787 179.30321304 -218.1875 181.625 C-219.1928479 182.31589722 -219.1928479 182.31589722 -220.21850586 183.02075195 C-224.25599469 185.79668013 -228.28656505 188.58232614 -232.3125 191.375 C-237.48448077 194.9604836 -242.67728061 198.51445892 -247.875 202.0625 C-255.17221047 207.04574416 -262.43718344 212.07379478 -269.6875 217.125 C-276.40678835 221.80609679 -283.12831774 226.48343944 -289.875 231.125 C-290.47401123 231.53766113 -291.07302246 231.95032227 -291.69018555 232.37548828 C-296.42899612 235.63046919 -301.21093541 238.81953852 -306 242 C-297.55456959 249.04137008 -289.11968779 256.05188435 -280.25390625 262.5625 C-277.59394235 264.53068469 -274.99621229 266.57057596 -272.40234375 268.625 C-271.59337646 269.26373047 -270.78440918 269.90246094 -269.95092773 270.56054688 C-268.343387 271.83261616 -266.7398761 273.10979825 -265.14086914 274.39257812 C-264.40344482 274.97458984 -263.66602051 275.55660156 -262.90625 276.15625 C-262.24947266 276.68025391 -261.59269531 277.20425781 -260.91601562 277.74414062 C-258.88907326 279.07270734 -257.39844391 279.68792222 -255 280 C-252.5155239 278.80718816 -252.5155239 278.80718816 -249.9375 276.875 C-248.87015625 276.12992187 -247.8028125 275.38484375 -246.703125 274.6171875 C-246.11208984 274.19791992 -245.52105469 273.77865234 -244.91210938 273.34667969 C-242.88757861 271.92082273 -240.84531679 270.5240845 -238.796875 269.1328125 C-228.99962533 262.47851629 -219.2748329 255.72141023 -209.55834961 248.94995117 C-201.1746236 243.11129737 -192.75080564 237.33317479 -184.31054688 231.57666016 C-180.37098758 228.88840214 -176.43572723 226.19386372 -172.5 223.5 C-167.68054209 220.20187335 -162.86061019 216.90444604 -158.0390625 213.609375 C-142.30292881 202.94791226 -142.30292881 202.94791226 -126.8125 191.9375 C-124 190 -124 190 -122 190 C-114.5903274 230.17067785 -118.44766689 269.21311233 -142.15234375 303.67529297 C-148.12397552 312.01844572 -154.94428793 319.57062094 -162 327 C-162.87011719 327.96679688 -162.87011719 327.96679688 -163.7578125 328.953125 C-186.78591229 353.7170112 -224.48774994 365.74786808 -257.30859375 367.21484375 C-292.46764951 368.25886811 -325.65520424 354.83735253 -352 332 C-352.89203125 331.26523437 -353.7840625 330.53046875 -354.703125 329.7734375 C-378.75916749 309.22270406 -394.96650926 274.48680753 -398.71875 243.2421875 C-402.09194796 200.2339135 -389.95925519 161.62617987 -363 128 C-362.58137695 127.45794922 -362.16275391 126.91589844 -361.73144531 126.35742188 C-358.95559505 122.85085372 -356.10545004 120.44103327 -352.375 118 C-346.71220789 114.21791018 -341.21495334 110.24987961 -335.75 106.1875 C-329.00850954 101.19020345 -322.21136148 96.28771487 -315.3425293 91.46728516 C-307.93220329 86.26291578 -300.59881034 80.95404442 -293.26611328 75.64111328 C-289.513552 72.92351827 -285.75656581 70.21205527 -282 67.5 C-280.49997854 66.41669638 -278.99997854 65.33336304 -277.5 64.25 C-262.5 53.41666667 -247.5 42.58333333 -232.5 31.75 C-231.75661377 31.21310547 -231.01322754 30.67621094 -230.24731445 30.12304688 C-228.75628346 29.04620016 -227.26523545 27.96937701 -225.77416992 26.89257812 C-221.88679986 24.0851985 -217.99977915 21.27733693 -214.11328125 18.46875 C-213.30955078 17.88802734 -212.50582031 17.30730469 -211.67773438 16.70898438 C-210.15158194 15.60627308 -208.62553265 14.50341901 -207.09960938 13.40039062 C-205.72241881 12.40539911 -204.34374173 11.41246091 -202.96337891 10.421875 C-201.64364411 9.46612575 -200.33345337 8.4970708 -199.03271484 7.515625 C-194.3184691 4 -194.3184691 4 -191 4 C-189.45703125 5.43359375 -189.45703125 5.43359375 -187.8125 7.4375 C-187.20664062 8.159375 -186.60078125 8.88125 -185.9765625 9.625 C-185.32429687 10.40875 -184.67203125 11.1925 -184 12 C-182.56981769 13.65219617 -181.13241779 15.29817508 -179.6875 16.9375 C-178.70330078 18.06478516 -178.70330078 18.06478516 -177.69921875 19.21484375 C-176.11045152 21.08624197 -176.11045152 21.08624197 -174 22 C-174 22.66 -174 23.32 -174 24 C-176.08178711 25.60961914 -176.08178711 25.60961914 -179.02734375 27.53515625 C-180.1167627 28.25324463 -181.20618164 28.97133301 -182.32861328 29.71118164 C-182.91580139 30.09372101 -183.5029895 30.47626038 -184.10797119 30.87039185 C-186.58643159 32.48533928 -189.05480681 34.11540092 -191.52374268 35.74485779 C-192.80023078 36.58720354 -194.07721519 37.42879764 -195.35467529 38.26966858 C-201.48551567 42.30802394 -207.56085974 46.42457614 -213.625 50.5625 C-214.64650146 51.25867432 -215.66800293 51.95484863 -216.72045898 52.67211914 C-218.78298485 54.07805451 -220.84524184 55.48438438 -222.90722656 56.89111328 C-228.10118673 60.43274795 -233.30086489 63.96596861 -238.5 67.5 C-244.34092065 71.47099721 -250.18164296 75.442281 -256.01968384 79.41751099 C-257.69919804 80.56107271 -259.3788725 81.70439868 -261.05859375 82.84765625 C-263.14875311 84.27036977 -265.23862181 85.69351046 -267.328125 87.1171875 C-273.32398151 91.19758918 -279.34571682 95.23565075 -285.39526367 99.23608398 C-287.65119833 100.76379304 -289.838593 102.34235802 -292 104 C-286.35240037 109.19098519 -280.63322422 114.21213172 -274.5859375 118.93359375 C-272.72167365 120.42331517 -270.89778692 121.96406508 -269.1015625 123.53515625 C-268.13992188 124.36917969 -267.17828125 125.20320313 -266.1875 126.0625 C-265.31480469 126.83722656 -264.44210937 127.61195312 -263.54296875 128.41015625 C-261.15867376 130.25882541 -261.15867376 130.25882541 -258.61206055 129.77490234 C-255.81647634 128.94555528 -254.02096733 127.8947936 -251.6640625 126.19140625 C-250.85557861 125.61479248 -250.04709473 125.03817871 -249.21411133 124.4440918 C-247.93250122 123.51270386 -247.93250122 123.51270386 -246.625 122.5625 C-244.80951499 121.26693726 -242.99310299 119.97267255 -241.17578125 118.6796875 C-240.28713379 118.04514648 -239.39848633 117.41060547 -238.48291016 116.75683594 C-235.29939236 114.50427015 -232.06956574 112.33174664 -228.8125 110.1875 C-222.27500431 105.86716246 -215.78960245 101.47282614 -209.3125 97.0625 C-208.2601416 96.34610352 -207.2077832 95.62970703 -206.12353516 94.89160156 C-204.47625774 93.77014513 -202.82898154 92.64868689 -201.18179321 91.52709961 C-195.12386302 87.40253284 -189.06214309 83.28355523 -182.99862671 79.16720581 C-181.81344785 78.36250157 -180.62840418 77.55759817 -179.44351196 76.75247192 C-172.57043175 72.08230678 -165.67620397 67.44572531 -158.75805664 62.8425293 C-154.85930658 60.2379558 -150.98966935 57.59227342 -147.125 54.9375 C-145.47797849 53.80842757 -143.8308382 52.67952839 -142.18359375 51.55078125 C-141.33651855 50.97021973 -140.48944336 50.3896582 -139.61669922 49.79150391 C-134.22570739 46.10060094 -128.82573316 42.42286211 -123.42675781 38.74365234 C-118.66195383 35.49659481 -113.89811562 32.24814601 -109.13671875 28.99609375 C-107.21621151 27.68479964 -105.29563961 26.37360022 -103.375 25.0625 C-102.44776123 24.42948975 -101.52052246 23.79647949 -100.56518555 23.14428711 C-95.89653828 19.9610225 -91.21499512 16.80164797 -86.5 13.6875 C-66.08474576 0 -66.08474576 0 0 0 Z " fill="#000A73" transform="translate(512,0)"/>
<path d="M0 0 C66 0 66 0 79 10 C81.21632029 11.62186902 83.44242418 13.23067534 85.6875 14.8125 C86.86490402 15.64668296 88.04196985 16.48134343 89.21875 17.31640625 C89.82847656 17.74840332 90.43820313 18.18040039 91.06640625 18.62548828 C102.09619949 26.46611151 113.01865495 34.45553086 123.89526367 42.50683594 C124.6504126 43.06532227 125.40556152 43.62380859 126.18359375 44.19921875 C126.84931396 44.69252686 127.51503418 45.18583496 128.20092773 45.6940918 C129.77294785 46.83518769 131.38373356 47.92248904 133 49 C133 49.66 133 50.32 133 51 C131.671875 52.12109375 131.671875 52.12109375 129.75 53.4375 C123.73290523 57.81260588 118.38480766 62.88669524 113 68 C112.49388184 68.47743652 111.98776367 68.95487305 111.46630859 69.44677734 C91.93659245 87.98335054 78.30906456 110.23577855 68 135 C67.64502441 135.84079102 67.29004883 136.68158203 66.92431641 137.54785156 C55.4372579 164.93507579 48.75589121 192.38157586 48.8125 222.125 C48.81376892 222.81274506 48.81503784 223.50049011 48.81634521 224.20907593 C48.98074077 271.00406742 65.31080574 319.56894465 95 356 C95.48581543 356.60005859 95.97163086 357.20011719 96.47216797 357.81835938 C108.73174951 372.8427981 122.18191698 385.76083575 138 397 C138.8967041 397.63977783 138.8967041 397.63977783 139.81152344 398.29248047 C149.57303773 405.15561017 160.14424312 410.12588009 171 415 C171 415.66 171 416.32 171 417 C86.355 416.505 86.355 416.505 0 416 C0 278.72 0 141.44 0 0 Z " fill="#B6010F" transform="translate(0,0)"/>
</svg>
