<?xml version="1.0" encoding="UTF-8"?>
<svg version="1.1" xmlns="http://www.w3.org/2000/svg" width="507" height="538">
<path d="M0 0 C167.31 0 334.62 0 507 0 C507 177.54 507 355.08 507 538 C339.69 538 172.38 538 0 538 C0 360.46 0 182.92 0 0 Z " fill="#015BAA" transform="translate(0,0)"/>
<path d="M0 0 C78.54 0 157.08 0 238 0 C238 110.88 238 221.76 238 336 C278.92 336 319.84 336 362 336 C362 338.31 362 340.62 362 343 C321.08 343 280.16 343 238 343 C238.33 390.52 238.66 438.04 239 487 C253.19 489.97 267.38 492.94 282 496 C301.3125 500.0625 301.3125 500.0625 310.6328125 502.02734375 C317.04327172 503.3785086 323.45483648 504.72425235 329.8671875 506.06640625 C333.14072787 506.75211416 336.41415995 507.43833651 339.6875 508.125 C340.4930835 508.29397797 341.29866699 508.46295593 342.12866211 508.63705444 C351.70614924 510.64822529 361.26756294 512.71373829 370.8125 514.875 C385.79386134 518.26041705 400.85520805 521.259266 415.90698242 524.31225586 C428.42735342 526.85325606 440.93253461 529.44651461 453.41870117 532.15087891 C461.26374455 533.84963085 469.1197953 535.47220521 477 537 C477 537.33 477 537.66 477 538 C319.59 538 162.18 538 0 538 C0 360.46 0 182.92 0 0 Z " fill="#FEFEFE" transform="translate(0,0)"/>
<path d="M0 0 C0 37.95 0 75.9 0 115 C-46.53 115 -93.06 115 -141 115 C-141 174.07 -141 233.14 -141 294 C-132.42 294 -123.84 294 -115 294 C-115 300.27 -115 306.54 -115 313 C-108.07 313 -101.14 313 -94 313 C-94 306.73 -94 300.46 -94 294 C-62.98 294 -31.96 294 0 294 C0 332.28 0 370.56 0 410 C-11.57017327 412.89254332 -23.1499958 415.14279124 -34.95043945 416.82202148 C-39.28319631 417.46598459 -43.47353797 418.34106749 -47.71484375 419.44140625 C-54.37827635 421.15469426 -61.09043303 422.31626152 -67.875 423.4375 C-70.42850947 423.86905832 -72.98189374 424.301358 -75.53515625 424.734375 C-76.79086426 424.94642578 -78.04657227 425.15847656 -79.34033203 425.37695312 C-84.66979451 426.28427722 -89.99241544 427.22686525 -95.3125 428.1875 C-96.18181152 428.34210693 -97.05112305 428.49671387 -97.94677734 428.65600586 C-102.26766425 429.43941661 -106.48696469 430.38119569 -110.7409668 431.47973633 C-115.85853308 432.6583307 -121.07014272 433.39862083 -126.25 434.25 C-138.84001611 436.3645007 -151.29753483 438.91651035 -163.76953125 441.6484375 C-173.91949361 443.8693623 -184.12312578 445.73027839 -194.37890625 447.39453125 C-197.49461062 447.91549584 -200.60470435 448.45879392 -203.71484375 449.01171875 C-205.2615979 449.28544312 -205.2615979 449.28544312 -206.83959961 449.56469727 C-208.92031994 449.93358511 -211.00057668 450.30509905 -213.08032227 450.67944336 C-214.04381592 450.84968018 -215.00730957 451.01991699 -216 451.1953125 C-217.299375 451.42758545 -217.299375 451.42758545 -218.625 451.66455078 C-221 452 -221 452 -225 452 C-225 316.04 -225 180.08 -225 40 C-187.06410256 33.1025641 -187.06410256 33.1025641 -168.40869141 29.88745117 C-159.26696931 28.30989736 -150.15594776 26.65528395 -141.06445312 24.8059082 C-133.30731006 23.248651 -125.5138158 21.87490019 -117.72875977 20.46557617 C-114.80649576 19.93641275 -111.88466988 19.40487965 -108.96289062 18.87304688 C-94.36722327 16.22106572 -79.75099405 13.77577591 -65.09179688 11.5 C-59.80900707 10.66570377 -54.59406117 9.73247205 -49.3840332 8.52685547 C-44.26436364 7.39544257 -39.09476869 6.50409854 -33.9375 5.5625 C-31.53901672 5.12264537 -29.14057904 4.68254203 -26.7421875 4.2421875 C-25.5881543 4.03045898 -24.43412109 3.81873047 -23.24511719 3.60058594 C-20.43461627 3.08043605 -17.62676632 2.54929035 -14.8203125 2.0078125 C-13.71828491 1.79596313 -13.71828491 1.79596313 -12.59399414 1.57983398 C-10.7093184 1.21585443 -8.82533174 0.84831181 -6.94140625 0.48046875 C-4 0 -4 0 0 0 Z " fill="#FDE802" transform="translate(225,42)"/>
<path d="M0 0 C2.84536272 -0.01356195 5.6900458 -0.04192764 8.53515625 -0.08203125 C12.07348719 -0.13174732 15.61118604 -0.1561526 19.14985085 -0.16322708 C21.08896097 -0.17295453 23.02790268 -0.20699439 24.96672058 -0.24203491 C39.55503706 -0.20730272 49.85434031 5.12374116 60.26733398 14.99853516 C69.50656762 24.78687054 72.86266062 37.27897354 72.67770386 50.36911011 C72.44883462 56.49839835 71.89574094 62.56851538 71.25170898 68.66650391 C71.05175944 70.65298346 70.85181164 72.63946318 70.65196133 74.62595272 C70.37452491 77.36488141 70.09022416 80.1030805 69.80596924 82.84130859 C69.3094992 87.63726849 68.82392163 92.43434285 68.33848572 97.23143005 C68.08083922 99.77066639 67.82058367 102.30963999 67.55714417 104.84828186 C66.72112402 113.00863942 66.06914256 121.16496252 65.52905273 129.35009766 C66.64195679 129.35710693 66.64195679 129.35710693 67.77734375 129.36425781 C75.71378943 129.51031379 80.697856 132.04999505 86.52905273 137.35009766 C94.96250559 147.01064021 91.98631821 163.40410908 91.37670898 175.33056641 C91.11189665 179.20547338 90.79113793 183.07349728 90.44726562 186.94213867 C89.76198402 194.80176929 89.27891528 202.65528111 88.86889648 210.53369141 C88.74978194 212.74195795 88.63039439 214.95020979 88.51074219 217.15844727 C88.33064857 220.48519754 88.15585928 223.81174184 87.99911499 227.13967896 C87.85017814 230.28375932 87.67974669 233.42607532 87.50561523 236.56884766 C87.46697861 237.50655502 87.42834198 238.44426239 87.38853455 239.41038513 C86.84329363 248.5771097 84.21594716 256.81180088 77.52905273 263.35009766 C75.95358857 264.30076236 74.36965199 265.23747891 72.77905273 266.16259766 C69.45874957 268.17667852 69.45874957 268.17667852 67.86889648 271.55322266 C67.76829301 273.11128676 67.70121289 274.67191998 67.66967773 276.23291016 C67.52905273 278.35009766 67.52905273 278.35009766 65.96655273 281.28759766 C62.61026432 284.12753401 59.83235893 284.56115819 55.52905273 285.35009766 C55.45557617 286.60886719 55.45557617 286.60886719 55.38061523 287.89306641 C55.12235368 292.04751519 54.82996152 296.19856226 54.52905273 300.35009766 C54.46991699 301.20619629 54.41078125 302.06229492 54.34985352 302.94433594 C52.46202826 329.41712213 52.46202826 329.41712213 44.52905273 337.35009766 C41.29551134 338.96686835 39.10144738 338.82641694 35.52905273 338.35009766 C28.84006381 333.55012875 27.24714389 325.48728843 25.91723633 317.82519531 C25.44406716 314.58944932 25.0005359 311.35265399 24.59375 308.10791016 C24.34007599 306.0883409 24.0732459 304.07082866 23.80444336 302.05322266 C23.07179204 296.39568354 22.52905273 291.07215779 22.52905273 285.35009766 C-5.19094727 285.35009766 -32.91094727 285.35009766 -61.47094727 285.35009766 C-61.47094727 274.46009766 -61.47094727 263.57009766 -61.47094727 252.35009766 C-20.55094727 252.35009766 20.36905273 252.35009766 62.52905273 252.35009766 C62.52905273 250.04009766 62.52905273 247.73009766 62.52905273 245.35009766 C21.60905273 245.35009766 -19.31094727 245.35009766 -61.47094727 245.35009766 C-61.47094727 164.83009766 -61.47094727 84.31009766 -61.47094727 1.35009766 C-40.96290356 0.70922129 -20.50708089 0.08731897 0 0 Z " fill="#F3E50A" transform="translate(299.470947265625,90.64990234375)"/>
<path d="M0 0 C88.11 0 176.22 0 267 0 C267 177.54 267 355.08 267 538 C257.76 538 248.52 538 239 538 C239 376.3 239 214.6 239 48 C236.03 47.67 233.06 47.34 230 47 C228.13838427 46.67109263 226.28136563 46.3134774 224.43359375 45.9140625 C223.46244629 45.70716797 222.49129883 45.50027344 221.49072266 45.28710938 C220.48315918 45.06861328 219.4755957 44.85011719 218.4375 44.625 C216.28801083 44.16809117 214.13827074 43.71236124 211.98828125 43.2578125 C210.95396973 43.03899414 209.9196582 42.82017578 208.85400391 42.59472656 C204.03177892 41.58985573 199.19205699 40.69641794 194.34765625 39.8046875 C176.8809613 36.58944602 159.46226053 33.11631515 142.05175781 29.61181641 C139.10581224 29.02121324 136.15866384 28.43711207 133.2109375 27.85546875 C121.30649086 25.50122375 109.42676004 23.04417944 97.55563354 20.52828979 C85.35075589 17.94210169 73.14619762 15.39564629 60.88549805 13.08520508 C48.36319552 10.71474018 35.87111513 8.19164979 23.375 5.6875 C22.22173218 5.45645569 21.06846436 5.22541138 19.88024902 4.98736572 C13.25324091 3.65953074 6.62647938 2.33047107 0 1 C0 0.67 0 0.34 0 0 Z " fill="#FEFEFE" transform="translate(240,0)"/>
<path d="M0 0 C4.52971139 -0.06424294 9.05922609 -0.11035287 13.58929443 -0.13986206 C15.22203147 -0.15229755 16.85473906 -0.16971799 18.48736572 -0.19241333 C34.34753811 -0.40128935 34.34753811 -0.40128935 41.81152344 3.09130859 C42.67003906 3.46771484 43.52855469 3.84412109 44.41308594 4.23193359 C54.21500607 9.6059593 60.6841417 17.32858479 64.87329102 27.72680664 C65.97769481 31.68719923 66.12656534 35.3749593 66.08496094 39.45068359 C66.08015717 40.271474 66.07535339 41.0922644 66.07040405 41.93792725 C65.90006706 52.79523529 64.63177784 63.55890854 63.43652344 74.34130859 C62.98752403 78.4919577 62.54389818 82.64317373 62.10058594 86.79443359 C61.99184143 87.80340698 61.88309692 88.81238037 61.77105713 89.85192871 C60.62623877 100.58452041 59.69990531 111.33483969 58.81152344 122.09130859 C57.67070312 122.31608887 56.52988281 122.54086914 55.35449219 122.77246094 C41.78934019 125.49241558 29.83284851 130.64563385 18.70605469 138.96240234 C15.35536326 140.95899992 12.83666974 141.32632807 9.03417969 140.45458984 C7.99132812 140.10783203 6.94847656 139.76107422 5.87402344 139.40380859 C-10.24673496 134.61562856 -26.22227826 132.79950021 -42.96191406 131.97412109 C-44.63992169 131.88686997 -46.31790059 131.79906448 -47.99584961 131.71069336 C-52.05975631 131.49785166 -56.12397577 131.29247251 -60.18847656 131.09130859 C-60.21180532 114.28907038 -60.22945562 97.48683721 -60.24028873 80.68458652 C-60.24545174 72.88355023 -60.25249453 65.08252399 -60.26391602 57.28149414 C-60.27386271 50.48454546 -60.28032995 43.68760406 -60.28256506 36.89064831 C-60.28387219 33.28952728 -60.2869582 29.68842707 -60.29420662 26.0873127 C-60.3022202 22.07374257 -60.30246771 18.06020895 -60.30200195 14.04663086 C-60.30559723 12.84398087 -60.3091925 11.64133087 -60.31289673 10.40223694 C-60.31152206 9.3154364 -60.3101474 8.22863586 -60.30873108 7.10890198 C-60.30965287 6.15853341 -60.31057467 5.20816484 -60.31152439 4.22899723 C-60.18847656 2.09130859 -60.18847656 2.09130859 -59.18847656 1.09130859 C-57.73875842 0.96864341 -56.28325145 0.91350449 -54.82861328 0.88598633 C-53.89211945 0.86606125 -52.95562561 0.84613617 -51.99075317 0.8256073 C-50.44507156 0.80050835 -50.44507156 0.80050835 -48.86816406 0.77490234 C-47.2626619 0.74345879 -47.2626619 0.74345879 -45.62472534 0.71138 C-42.10438795 0.64458022 -38.58398429 0.58588765 -35.06347656 0.52880859 C-33.8709729 0.50862671 -32.67846924 0.48844482 -31.4498291 0.46765137 C-24.17133712 0.34556432 -16.89273629 0.23686899 -9.6138916 0.13812256 C-6.40922406 0.09432547 -3.20461699 0.04732338 0 0 Z " fill="#025BA9" transform="translate(298.1884765625,97.90869140625)"/>
<path d="M0 0 C7.738291 -0.36033951 13.47041576 0.77487606 19.85546875 5.28125 C23.91468927 9.4394759 24.99676963 12.68464225 24.98046875 18.40625 C24.98304688 19.29570312 24.985625 20.18515625 24.98828125 21.1015625 C24.88397497 23.59877746 24.67292005 25.98803329 24.37402344 28.46386719 C23.88003529 32.82220712 23.60627471 37.15797964 23.42578125 41.5390625 C23.35420085 43.13209628 23.2822441 44.72511319 23.20996094 46.31811523 C23.17302124 47.14721405 23.13608154 47.97631287 23.09802246 48.83053589 C22.76846427 56.05147067 22.38565353 63.26991972 22.0032959 70.48822021 C21.90502298 72.34497785 21.80776778 74.20178963 21.71154785 76.05865479 C21.43083137 81.43327016 21.11980817 86.80463665 20.76654053 92.17498779 C20.66016476 93.85495094 20.56317739 95.53553803 20.47613525 97.21661377 C19.574946 114.35639957 19.574946 114.35639957 12.85546875 121.28125 C6.05207543 127.32213051 0.24886858 128.13113874 -8.64086914 127.96240234 C-9.8613797 127.9632785 -11.08189026 127.96415466 -12.33938599 127.96505737 C-15.65989179 127.96161263 -18.97811161 127.9316955 -22.29821324 127.88961363 C-25.77746944 127.8519011 -29.25676174 127.84856525 -32.7361908 127.84146118 C-39.31292594 127.82287202 -45.88905693 127.77371693 -52.465527 127.71336424 C-59.95764775 127.64611289 -67.44979858 127.61326359 -74.94214642 127.58319163 C-90.34329987 127.52061126 -105.74381361 127.41397373 -121.14453125 127.28125 C-121.14453125 123.65125 -121.14453125 120.02125 -121.14453125 116.28125 C-80.22453125 116.28125 -39.30453125 116.28125 2.85546875 116.28125 C2.85546875 113.97125 2.85546875 111.66125 2.85546875 109.28125 C-38.06453125 109.28125 -78.98453125 109.28125 -121.14453125 109.28125 C-121.14453125 97.40125 -121.14453125 85.52125 -121.14453125 73.28125 C-117.1484375 73.32765625 -113.15234375 73.3740625 -109.03515625 73.421875 C-105.16960928 73.45306003 -101.30407626 73.47735398 -97.43847656 73.50097656 C-94.74948659 73.518849 -92.06087299 73.54669475 -89.37207031 73.58300781 C-85.50965564 73.63146615 -81.64781917 73.65420626 -77.78515625 73.671875 C-76.58086975 73.69252014 -75.37658325 73.71316528 -74.13580322 73.73443604 C-72.45451324 73.73488922 -72.45451324 73.73488922 -70.73925781 73.73535156 C-69.75330627 73.74423401 -68.76735474 73.75311646 -67.75152588 73.76226807 C-64.37719194 73.13966779 -63.2395732 71.9509168 -61.14453125 69.28125 C-59.45122897 64.24941797 -58.98413082 59.81060265 -58.97070312 54.53295898 C-58.89168902 40.79720333 -54.41706577 30.57835549 -44.703125 20.5859375 C-32.22653506 9.34748244 -16.80695379 1.50323065 0 0 Z " fill="#045CA8" transform="translate(359.14453125,226.71875)"/>
<path d="M0 0 C46.53 0 93.06 0 141 0 C141 3.63 141 7.26 141 11 C98.1 11 55.2 11 11 11 C11 15.29 11 19.58 11 24 C53.9 24 96.8 24 141 24 C141 27.96 141 31.92 141 36 C98.43 36 55.86 36 12 36 C12 47.88 12 59.76 12 72 C54.57 72 97.14 72 141 72 C141 75.96 141 79.92 141 84 C98.43 84 55.86 84 12 84 C12 96.21 12 108.42 12 121 C54.57 121 97.14 121 141 121 C141 124.96 141 128.92 141 133 C98.43 133 55.86 133 12 133 C12 144.22 12 155.44 12 167 C54.57 167 97.14 167 141 167 C141 170.96 141 174.92 141 179 C109.98 179 78.96 179 47 179 C47 185.27 47 191.54 47 198 C40.07 198 33.14 198 26 198 C26 191.73 26 185.46 26 179 C17.42 179 8.84 179 0 179 C0 119.93 0 60.86 0 0 Z " fill="#095FA4" transform="translate(84,157)"/>
<path d="M0 0 C42.57 0 85.14 0 129 0 C129 12.21 129 24.42 129 37 C86.43 37 43.86 37 0 37 C0 24.79 0 12.58 0 0 Z " fill="#FDE803" transform="translate(96,241)"/>
<path d="M0 0 C42.57 0 85.14 0 129 0 C129 11.88 129 23.76 129 36 C86.43 36 43.86 36 0 36 C0 24.12 0 12.24 0 0 Z " fill="#FCE903" transform="translate(96,193)"/>
<path d="M0 0 C42.57 0 85.14 0 129 0 C129 11.22 129 22.44 129 34 C86.43 34 43.86 34 0 34 C0 22.78 0 11.56 0 0 Z " fill="#FDE903" transform="translate(96,290)"/>
<path d="M0 0 C26.05825515 -0.2575827 26.05825515 -0.2575827 36.375 1.25 C37.34904785 1.38132324 38.3230957 1.51264648 39.32666016 1.64794922 C61.59619085 4.79809542 61.59619085 4.79809542 68 8 C66.52890317 11.06185225 64.84958087 13.92497748 63.0625 16.8125 C57.12589528 26.68753516 55.88491625 35.58907072 55.48242188 46.94726562 C55.29868607 50.83345133 54.88138605 53.61124688 53 57 C45.61258753 56.88271584 38.22533093 56.75787986 30.83813477 56.62768555 C28.32286504 56.58425994 25.80756437 56.54259071 23.29223633 56.50268555 C19.68561456 56.44516707 16.07914969 56.38142033 12.47265625 56.31640625 C11.34038101 56.29969376 10.20810577 56.28298126 9.04151917 56.26576233 C8.00051559 56.24581711 6.95951202 56.22587189 5.88696289 56.20532227 C4.96540909 56.18977798 4.04385529 56.1742337 3.09437561 56.15821838 C1 56 1 56 0 55 C-0.0935919 53.28134591 -0.11744611 51.55884256 -0.11352539 49.83764648 C-0.11344986 48.73658066 -0.11337433 47.63551483 -0.11329651 46.50108337 C-0.10813522 45.3031868 -0.10297394 44.10529022 -0.09765625 42.87109375 C-0.0962413 41.65172623 -0.09482635 40.4323587 -0.09336853 39.17604065 C-0.08774967 35.2631693 -0.07519396 31.35035419 -0.0625 27.4375 C-0.05748743 24.79231853 -0.0529241 22.14713617 -0.04882812 19.50195312 C-0.03777411 13.00128274 -0.02101764 6.50064539 0 0 Z " fill="#045CA9" transform="translate(238,237)"/>
<path d="M0 0 C40.26 0 80.52 0 122 0 C120.875 7.875 120.875 7.875 119 11 C118.34 11 117.68 11 117 11 C117 11.66 117 12.32 117 13 C117.99 13.495 117.99 13.495 119 14 C118.34 14 117.68 14 117 14 C116.92652344 15.25876953 116.92652344 15.25876953 116.8515625 16.54296875 C116.59330095 20.69741753 116.30090878 24.8484646 116 29 C115.94086426 29.85609863 115.88172852 30.71219727 115.82080078 31.59423828 C113.93297553 58.06702447 113.93297553 58.06702447 106 66 C102.76645861 67.6167707 100.57239465 67.47631929 97 67 C90.31101107 62.20003109 88.71809115 54.13719077 87.38818359 46.47509766 C86.91501442 43.23935166 86.47148317 40.00255633 86.06469727 36.7578125 C85.81102326 34.73824324 85.54419317 32.72073101 85.27539062 30.703125 C84.54273931 25.04558588 84 19.72206014 84 14 C56.28 14 28.56 14 0 14 C0 9.38 0 4.76 0 0 Z " fill="#F2E40B" transform="translate(238,362)"/>
<path d="M0 0 C42.9 0 85.8 0 130 0 C130 4.29 130 8.58 130 13 C87.1 13 44.2 13 0 13 C0 8.71 0 4.42 0 0 Z " fill="#F9E706" transform="translate(95,168)"/>
<path d="M0 0 C40.92 0 81.84 0 124 0 C124 2.31 124 4.62 124 7 C83.08 7 42.16 7 0 7 C0 4.69 0 2.38 0 0 Z " fill="#FDEA04" transform="translate(238,336)"/>
<path d="M0 0 C40.26 0 80.52 0 122 0 C121.67 1.65 121.34 3.3 121 5 C118.55181792 6.22409104 116.9790144 6.1231358 114.24179077 6.12025452 C113.23775711 6.12162918 112.23372345 6.12300385 111.19926453 6.12442017 C110.09371719 6.12082489 108.98816986 6.11722961 107.84912109 6.11352539 C106.68815414 6.11367142 105.52718719 6.11381744 104.33103943 6.1139679 C100.4784867 6.11326903 96.62598182 6.10547781 92.7734375 6.09765625 C90.10828571 6.09579198 87.44313659 6.09431895 84.77798462 6.09336853 C78.47045915 6.09025745 72.16295096 6.08204706 65.85543311 6.07201904 C58.67535645 6.06085098 51.49527898 6.0553457 44.3151958 6.05032361 C29.54345502 6.03986427 14.77172781 6.02226914 0 6 C0 4.02 0 2.04 0 0 Z " fill="#025AAA" transform="translate(238,362)"/>
<path d="M0 0 C5.61 0 11.22 0 17 0 C17.15329996 7.81099794 16.58455981 15.36833356 15.6875 23.125 C15.56955078 24.25292969 15.45160156 25.38085938 15.33007812 26.54296875 C14.61389665 32.82332942 13.53135537 38.19986362 11 44 C9.68 44 8.36 44 7 44 C3.67442691 37.49178675 2.81801452 30.87477693 1.8125 23.6875 C1.63525391 22.51509766 1.45800781 21.34269531 1.27539062 20.13476562 C0.29384401 13.34731396 -0.18739832 6.85619381 0 0 Z " fill="#075DA6" transform="translate(330,376)"/>
<path d="M0 0 C2.83851454 1.9131588 4.55688766 3.89442224 6 7 C6.50714686 10.30208955 6.22802119 12.89211698 5 16 C2.15537593 19.45945636 -1.27937403 21.80447432 -5.75 22.3125 C-9.85767229 21.91753151 -11.82926614 20.5942368 -15 18 C-17.36121663 14.9948152 -17.41860637 11.73511562 -17.3203125 7.96484375 C-16.80387583 4.79694567 -15.28753598 3.16045065 -13 1 C-8.62081469 -1.64766643 -4.81478964 -1.53575187 0 0 Z " fill="#085EA5" transform="translate(168,250)"/>
<path d="M0 0 C3.13180809 1.62390049 5.24339744 3.00266026 7.375 5.8125 C8.31707395 9.10975883 8.41260656 11.5812599 8 15 C5.98287868 18.47565519 3.88639464 20.70453512 0 22 C-3.9579782 22.66343254 -7.47724734 23.01516844 -10.921875 20.71875 C-13.75761236 17.74797753 -15.38442938 15.07680668 -15.6875 10.9375 C-14.82510096 5.99830551 -13.53838305 4.45413584 -10 1 C-6.78501861 -0.6074907 -3.48701742 -0.47314549 0 0 Z " fill="#075DA6" transform="translate(166,299)"/>
<path d="M0 0 C3.55603214 1.29931943 5.48887171 2.36960845 7.875 5.3125 C9.23833511 8.56935609 9.50047119 10.49670169 9 14 C6.96006092 17.6578218 5.49580738 19.66946174 2 22 C-1.39107371 22.54602034 -4.60874176 22.54627924 -8 22 C-10.82424288 19.80977082 -12.41508603 18.16982793 -14 15 C-14.58029015 7.92046023 -14.58029015 7.92046023 -12.1875 4.125 C-8.07345817 0.12850223 -5.66598272 -0.48016803 0 0 Z " fill="#055CA7" transform="translate(165,199)"/>
<path d="M0 0 C5.26053037 -0.31563182 8.44573816 0.33409063 13 3 C9.72814447 4.07310858 7.57052408 3.89263102 4.25 3.0625 C3.45078125 2.86785156 2.6515625 2.67320312 1.828125 2.47265625 C1.22484375 2.31667969 0.6215625 2.16070312 0 2 C0 1.34 0 0.68 0 0 Z " fill="#1C659D" transform="translate(158,199)"/>
<path d="M0 0 C0.33 0 0.66 0 1 0 C1 2.31 1 4.62 1 7 C1.99 7 2.98 7 4 7 C3.25 8.9375 3.25 8.9375 2 11 C0.68 11.33 -0.64 11.66 -2 12 C-1.34 8.04 -0.68 4.08 0 0 Z " fill="#1D6999" transform="translate(367,360)"/>
</svg>
