<?xml version="1.0" encoding="UTF-8"?>
<svg version="1.1" xmlns="http://www.w3.org/2000/svg" width="32" height="32">
<path d="M0 0 C10.56 0 21.12 0 32 0 C32 9.24 32 18.48 32 28 C21.44 28 10.88 28 0 28 C0 18.76 0 9.52 0 0 Z " fill="#F7F9FB" transform="translate(0,2)"/>
<path d="M0 0 C1.2065625 0.0309375 1.2065625 0.0309375 2.4375 0.0625 C2.14998893 3.27672633 1.33832842 4.15594717 -1.06640625 6.421875 C-2.07574219 7.21078125 -3.08507812 7.9996875 -4.125 8.8125 C-5.64287109 10.01132812 -5.64287109 10.01132812 -7.19140625 11.234375 C-7.97386719 11.83765625 -8.75632812 12.4409375 -9.5625 13.0625 C-8.5725 14.5475 -8.5725 14.5475 -7.5625 16.0625 C-6.9025 16.0625 -6.2425 16.0625 -5.5625 16.0625 C-5.294375 15.093125 -5.02625 14.12375 -4.75 13.125 C-4.358125 12.114375 -3.96625 11.10375 -3.5625 10.0625 C-2.5725 9.7325 -1.5825 9.4025 -0.5625 9.0625 C-0.27457062 14.62913461 -0.33692489 18.2797507 -3.5625 23.0625 C-9.2279094 27.35202426 -14.71100824 26.27012096 -21.5625 26.0625 C-21.0675 17.1525 -21.0675 17.1525 -20.5625 8.0625 C-19.5725 8.0625 -18.5825 8.0625 -17.5625 8.0625 C-17.5625 12.6825 -17.5625 17.3025 -17.5625 22.0625 C-15.2193787 21.80688677 -12.88406597 21.46979228 -10.5625 21.0625 C-10.2325 20.4025 -9.9025 19.7425 -9.5625 19.0625 C-10.18125 18.77375 -10.8 18.485 -11.4375 18.1875 C-13.5625 17.0625 -13.5625 17.0625 -15.5625 15.0625 C-15.41081437 10.81530228 -12.23433599 8.07687907 -9.5625 5.0625 C-14.5125 5.0625 -19.4625 5.0625 -24.5625 5.0625 C-24.5625 11.9925 -24.5625 18.9225 -24.5625 26.0625 C-25.5525 26.0625 -26.5425 26.0625 -27.5625 26.0625 C-27.5625 17.8125 -27.5625 9.5625 -27.5625 1.0625 C-15.625 1.125 -15.625 1.125 -11.85571289 1.15258789 C-10.8836792 1.15508545 -9.91164551 1.15758301 -8.91015625 1.16015625 C-7.90992432 1.16539307 -6.90969238 1.17062988 -5.87915039 1.17602539 C-3.0223758 1.03603169 -2.94669026 0.07187049 0 0 Z " fill="#0959A5" transform="translate(29.5625,2.9375)"/>
<path d="M0 0 C0 7.92 0 15.84 0 24 C-7.92 24 -15.84 24 -24 24 C-24 23.67 -24 23.34 -24 23 C-22.67935547 22.94392578 -22.67935547 22.94392578 -21.33203125 22.88671875 C-19.58986328 22.78810547 -19.58986328 22.78810547 -17.8125 22.6875 C-16.66394531 22.62949219 -15.51539063 22.57148438 -14.33203125 22.51171875 C-10.81469957 21.97154237 -8.84101048 21.10368834 -6 19 C-3.68472408 14.94826715 -3.46476174 10.57015707 -3 6 C-6.60654039 8.40436026 -6.85452932 9.94679607 -8 14 C-9.32 13.34 -10.64 12.68 -12 12 C-12 11.01 -12 10.02 -12 9 C-9.62890625 6.73828125 -9.62890625 6.73828125 -6.5625 4.3125 C-5.04849609 3.10013672 -5.04849609 3.10013672 -3.50390625 1.86328125 C-1 0 -1 0 0 0 Z " fill="#EAE5D5" transform="translate(32,6)"/>
<path d="M0 0 C10.56 0 21.12 0 32 0 C32 0.33 32 0.66 32 1 C25.98227533 3.76604187 20.05562248 3.002865 13.625 2.625 C9.78875 2.41875 5.9525 2.2125 2 2 C2 10.25 2 18.5 2 27 C2.99 27 3.98 27 5 27 C5 20.07 5 13.14 5 6 C5.33 6 5.66 6 6 6 C6 13.26 6 20.52 6 28 C4.02 28 2.04 28 0 28 C0 18.76 0 9.52 0 0 Z " fill="#3B7DB7" transform="translate(0,2)"/>
<path d="M0 0 C1.65 0 3.3 0 5 0 C5.3403125 1.85625 5.3403125 1.85625 5.6875 3.75 C6.7005094 7.92034525 8.31959133 9.67553136 12 12 C11.67 12.99 11.34 13.98 11 15 C8.69 15 6.38 15 4 15 C4 10.38 4 5.76 4 1 C3.01 1 2.02 1 1 1 C1 6.61 1 12.22 1 18 C0.67 18 0.34 18 0 18 C0 12.06 0 6.12 0 0 Z " fill="#3A7BB6" transform="translate(8,10)"/>
<path d="M0 0 C10.56 0 21.12 0 32 0 C32 0.33 32 0.66 32 1 C27.36876319 2.87454823 24.84174304 2.84397356 20 2 C16.71177541 1.73857373 13.41990108 1.589019 10.125 1.4375 C7.11375 1.293125 4.1025 1.14875 1 1 C1 9.91 1 18.82 1 28 C0.67 28 0.34 28 0 28 C0 18.76 0 9.52 0 0 Z " fill="#F7FAFB" transform="translate(0,2)"/>
<path d="M0 0 C0.8353125 0.37125 0.8353125 0.37125 1.6875 0.75 C0.6975 1.41 -0.2925 2.07 -1.3125 2.75 C-2.52534876 5.80429073 -2.52534876 5.80429073 -3.3125 8.75 C-4.6325 8.09 -5.9525 7.43 -7.3125 6.75 C-7.3125 5.76 -7.3125 4.77 -7.3125 3.75 C-3.21493902 -0.34756098 -3.21493902 -0.34756098 0 0 Z " fill="#D1E0ED" transform="translate(27.3125,11.25)"/>
<path d="M0 0 C2.31 1.65 4.62 3.3 7 5 C6.67 5.99 6.34 6.98 6 8 C4.02 8 2.04 8 0 8 C0 5.36 0 2.72 0 0 Z " fill="#E8F0F6" transform="translate(13,17)"/>
<path d="M0 0 C0.90492187 0.02320312 1.80984375 0.04640625 2.7421875 0.0703125 C4.10730469 0.09738281 4.10730469 0.09738281 5.5 0.125 C6.19867188 0.14820312 6.89734375 0.17140625 7.6171875 0.1953125 C7.6171875 0.5253125 7.6171875 0.8553125 7.6171875 1.1953125 C3.15482281 3.00150773 0.30684456 3.31189751 -4.3828125 2.1953125 C-2.3828125 0.1953125 -2.3828125 0.1953125 0 0 Z " fill="#EDF3F8" transform="translate(24.3828125,1.8046875)"/>
</svg>
